<?xml version="1.0" encoding="UTF-8"?><svg id="Layer_1" xmlns="http://www.w3.org/2000/svg" viewBox="0 0 249.6266 129.6224"><defs><style>.cls-1{fill:#00ff7f;}</style></defs><polygon class="cls-1" points="7.8065 128.0376 40.7942 128.0376 53.3609 77.7706 59.2516 100.9406 95.7737 93.8718 106.3769 128.0376 142.1136 128.0376 153.8949 54.3885 157.4293 78.1634 195.1296 66.6438 239.1132 56.5643 246.5747 36.1433 224.9756 32.6089 221.4412 22.7911 189.7189 6.6027 185.5736 2.1738 176.2379 2.5014 173.9232 10.2898 177.0649 17.2932 143.6844 1.5847 123.6562 3.1556 84.7778 11.4025 36.8671 22.3984 7.8065 69.5237 7.8065 128.0376"/><polygon class="cls-1" points="60.037 115.8636 63.9641 128.0376 92.2393 128.0376 92.2393 102.9041 60.037 115.8636"/><polygon class="cls-1" points="159.3929 128.0376 156.6439 85.5485 192.7733 74.2362 186.0972 128.0376 159.3929 128.0376"/><circle class="cls-1" cx="4.7536" cy="66.9203" r="1.7017"/><circle class="cls-1" cx="8.0194" cy="67.283" r=".5004"/><circle class="cls-1" cx="7.1617" cy="69.3202" r=".8577"/></svg>