<?xml version="1.0" encoding="utf-8"?>
<!-- Generator: Adobe Illustrator 27.4.1, SVG Export Plug-In . SVG Version: 6.00 Build 0)  -->
<svg version="1.1" id="Layer_1" xmlns="http://www.w3.org/2000/svg" xmlns:xlink="http://www.w3.org/1999/xlink" x="0px" y="0px"
	 viewBox="0 0 250.63 130.62" style="enable-background:new 0 0 250.63 130.62;" xml:space="preserve">
<style type="text/css">
	.st0{fill:#FFFFFF;}
</style>
<g>
	<polygon class="st0" points="8.31,128.54 41.29,128.54 53.86,78.27 59.75,101.44 96.27,94.37 106.88,128.54 142.61,128.54 
		154.39,54.89 157.93,78.66 195.63,67.14 239.61,57.06 247.07,36.64 225.48,33.11 221.94,23.29 190.22,7.1 186.07,2.67 176.74,3 
		174.42,10.79 177.56,17.79 144.18,2.08 124.16,3.66 85.28,11.9 37.37,22.9 8.31,70.02 	"/>
	<polygon class="st0" points="60.54,116.36 64.46,128.54 92.74,128.54 92.74,103.4 	"/>
	<polygon class="st0" points="159.89,128.54 157.14,86.05 193.27,74.74 186.6,128.54 	"/>
	<circle class="st0" cx="5.25" cy="67.42" r="1.7"/>
	<circle class="st0" cx="8.52" cy="67.78" r="0.5"/>
	<circle class="st0" cx="7.66" cy="69.82" r="0.86"/>
</g>
</svg>
